HIERARCHY
ROOT Hips
{
	OFFSET 0.000000 71.427986 0.000000
	CHANNELS 6 Xposition Yposition Zposition Xrotation Yrotation Zrotation
	JOINT Pelvis
	{
		OFFSET 0.000000 0.000000 0.000000
		CHANNELS 3 Xrotation Yrotation Zrotation
		JOINT LeftUpLeg
		{
			OFFSET 6.797100 -2.508499 -1.318700
			CHANNELS 3 Xrotation Yrotation Zrotation
			JOINT LeftLeg
			{
				OFFSET 0.069008 -29.241863 0.690200
				CHANNELS 3 Xrotation Yrotation Zrotation
				JOINT LeftFoot
				{
					OFFSET -0.069008 -29.568123 -0.266800
					CHANNELS 3 Xrotation Yrotation Zrotation
					JOINT LeftToeBase
					{
						OFFSET 3.145500 -8.631000 16.059900
						CHANNELS 3 Xrotation Yrotation Zrotation
						End Site
						{
							OFFSET 0.000000 18.501587 0.000000
						}
					}
				}
			}
			JOINT Left_ShortSleeve
			{
				OFFSET 0.265923 -10.480953 1.153800
				CHANNELS 3 Xrotation Yrotation Zrotation
				End Site
				{
					OFFSET 1.725763 19.823879 0.000000
				}
			}
		}
		JOINT RightUpLeg
		{
			OFFSET -6.797100 -2.508499 -1.318700
			CHANNELS 3 Xrotation Yrotation Zrotation
			JOINT RightLeg
			{
				OFFSET -0.082453 -29.241932 0.688000
				CHANNELS 3 Xrotation Yrotation Zrotation
				JOINT RightFoot
				{
					OFFSET 0.082453 -29.568058 -0.264600
					CHANNELS 3 Xrotation Yrotation Zrotation
					JOINT RightToeBase
					{
						OFFSET -3.115300 -8.682800 16.113400
						CHANNELS 3 Xrotation Yrotation Zrotation
						End Site
						{
							OFFSET 0.000000 18.567114 0.000000
						}
					}
				}
			}
			JOINT Right_ShortSleeve
			{
				OFFSET -0.265923 -10.480953 1.153800
				CHANNELS 3 Xrotation Yrotation Zrotation
				End Site
				{
					OFFSET -1.725766 19.823910 0.000000
				}
			}
		}
	}
	JOINT Spine
	{
		OFFSET 0.000000 13.368103 0.470500
		CHANNELS 3 Xrotation Yrotation Zrotation
		JOINT Spine1
		{
			OFFSET 0.147000 13.837402 0.538800
			CHANNELS 3 Xrotation Yrotation Zrotation
			JOINT Spine2
			{
				OFFSET 0.168000 16.242897 -1.435500
				CHANNELS 3 Xrotation Yrotation Zrotation
				JOINT Neck
				{
					OFFSET 0.217200 18.631500 -1.679100
					CHANNELS 3 Xrotation Yrotation Zrotation
					JOINT Head
					{
						OFFSET 0.000000 6.599396 1.385900
						CHANNELS 3 Xrotation Yrotation Zrotation
						JOINT Hat
						{
							OFFSET -0.532200 27.220596 -10.096100
							CHANNELS 3 Xrotation Yrotation Zrotation
							End Site
							{
								OFFSET 0.000000 22.029861 0.000000
							}
						}
						JOINT HairD
						{
							OFFSET -10.777400 17.437393 -1.325900
							CHANNELS 3 Xrotation Yrotation Zrotation
							JOINT HairD1
							{
								OFFSET -3.290299 -11.051193 1.062200
								CHANNELS 3 Xrotation Yrotation Zrotation
								End Site
								{
									OFFSET 0.000000 11.579437 0.000000
								}
							}
						}
						JOINT HairB
						{
							OFFSET -10.777400 17.437393 1.467900
							CHANNELS 3 Xrotation Yrotation Zrotation
							JOINT HairB1
							{
								OFFSET -1.561200 -12.956299 3.590200
								CHANNELS 3 Xrotation Yrotation Zrotation
								End Site
								{
									OFFSET 0.000000 13.534866 0.000000
								}
							}
						}
						JOINT HairA
						{
							OFFSET 9.713100 17.437393 1.467900
							CHANNELS 3 Xrotation Yrotation Zrotation
							JOINT HairA1
							{
								OFFSET 1.561200 -12.956299 3.590200
								CHANNELS 3 Xrotation Yrotation Zrotation
								End Site
								{
									OFFSET 0.000000 13.534866 0.000000
								}
							}
						}
						JOINT HairC
						{
							OFFSET 9.713100 17.437393 -1.325900
							CHANNELS 3 Xrotation Yrotation Zrotation
							JOINT HairC1
							{
								OFFSET 3.290300 -11.051193 1.062200
								CHANNELS 3 Xrotation Yrotation Zrotation
								End Site
								{
									OFFSET 0.000000 11.579437 0.000000
								}
							}
						}
					}
				}
				JOINT LeftShoulder
				{
					OFFSET 5.101800 15.108002 -2.763700
					CHANNELS 3 Xrotation Yrotation Zrotation
					JOINT LeftArm
					{
						OFFSET 9.825497 2.506317 -1.597400
						CHANNELS 3 Xrotation Yrotation Zrotation
						JOINT LeftForeArm
						{
							OFFSET 21.966244 0.000000 0.000000
							CHANNELS 3 Xrotation Yrotation Zrotation
							JOINT LeftHand
							{
								OFFSET 33.879036 0.000000 0.000000
								CHANNELS 3 Xrotation Yrotation Zrotation
								JOINT LeftHandThumb1
								{
									OFFSET 6.715286 -2.359680 3.363841
									CHANNELS 3 Xrotation Yrotation Zrotation
									JOINT LeftHandThumb2
									{
										OFFSET 2.507072 -1.447464 1.447461
										CHANNELS 3 Xrotation Yrotation Zrotation
										JOINT LeftHandThumb3
										{
											OFFSET 2.898338 -1.673355 1.673357
											CHANNELS 3 Xrotation Yrotation Zrotation
											End Site
											{
												OFFSET -0.295959 3.727692 -0.131651
											}
										}
									}
								}
								JOINT LeftHandIndex1
								{
									OFFSET 14.190811 -0.254547 3.840278
									CHANNELS 3 Xrotation Yrotation Zrotation
									JOINT LeftHandIndex2
									{
										OFFSET 3.551727 0.000000 -0.000000
										CHANNELS 3 Xrotation Yrotation Zrotation
										JOINT LeftHandIndex3
										{
											OFFSET 2.894196 0.000000 0.000000
											CHANNELS 3 Xrotation Yrotation Zrotation
											End Site
											{
												OFFSET -1.000603 2.690872 0.366626
											}
										}
									}
								}
								JOINT LeftHandMiddle1
								{
									OFFSET 13.776489 0.000000 0.000000
									CHANNELS 3 Xrotation Yrotation Zrotation
									JOINT LeftHandMiddle2
									{
										OFFSET 3.438232 0.000000 0.000000
										CHANNELS 3 Xrotation Yrotation Zrotation
										JOINT LeftHandMiddle3
										{
											OFFSET 3.691551 0.000000 0.000000
											CHANNELS 3 Xrotation Yrotation Zrotation
											End Site
											{
												OFFSET -1.082298 3.499527 0.457670
											}
										}
									}
								}
								JOINT LeftHandRing1
								{
									OFFSET 13.966164 -0.268127 -3.067488
									CHANNELS 3 Xrotation Yrotation Zrotation
									JOINT LeftHandRing2
									{
										OFFSET 3.162567 0.000000 0.000000
										CHANNELS 3 Xrotation Yrotation Zrotation
										JOINT LeftHandRing3
										{
											OFFSET 3.324348 0.000000 0.000000
											CHANNELS 3 Xrotation Yrotation Zrotation
											End Site
											{
												OFFSET -0.861900 3.184998 0.405154
											}
										}
									}
								}
								JOINT LeftHandPinky1
								{
									OFFSET 13.131393 -0.168503 -5.746925
									CHANNELS 3 Xrotation Yrotation Zrotation
									JOINT LeftHandPinky2
									{
										OFFSET 2.849182 0.000000 0.000000
										CHANNELS 3 Xrotation Yrotation Zrotation
										JOINT LeftHandPinky3
										{
											OFFSET 2.805038 0.000000 0.000000
											CHANNELS 3 Xrotation Yrotation Zrotation
											End Site
											{
												OFFSET -0.882500 2.642609 0.325652
											}
										}
									}
								}
							}
							JOINT Left_Sleeve
							{
								OFFSET 6.592125 -0.646545 0.805568
								CHANNELS 3 Xrotation Yrotation Zrotation
								End Site
								{
									OFFSET -0.000179 20.275787 -0.000000
								}
							}
						}
					}
				}
				JOINT RightShoulder
				{
					OFFSET -5.731700 15.108002 -2.763700
					CHANNELS 3 Xrotation Yrotation Zrotation
					JOINT RightArm
					{
						OFFSET -9.825497 2.506317 -1.597400
						CHANNELS 3 Xrotation Yrotation Zrotation
						JOINT RightForeArm
						{
							OFFSET -21.966242 0.000000 0.000000
							CHANNELS 3 Xrotation Yrotation Zrotation
							JOINT RightHand
							{
								OFFSET -33.879032 0.000000 0.000000
								CHANNELS 3 Xrotation Yrotation Zrotation
								JOINT RightHandThumb1
								{
									OFFSET -6.715286 -2.359680 3.363841
									CHANNELS 3 Xrotation Yrotation Zrotation
									JOINT RightHandThumb2
									{
										OFFSET -2.507072 -1.447464 1.447461
										CHANNELS 3 Xrotation Yrotation Zrotation
										JOINT RightHandThumb3
										{
											OFFSET -2.898338 -1.673355 1.673357
											CHANNELS 3 Xrotation Yrotation Zrotation
											End Site
											{
												OFFSET 0.295959 3.727692 -0.131651
											}
										}
									}
								}
								JOINT RightHandIndex1
								{
									OFFSET -14.190811 -0.254547 3.840278
									CHANNELS 3 Xrotation Yrotation Zrotation
									JOINT RightHandIndex2
									{
										OFFSET -3.551727 0.000000 -0.000000
										CHANNELS 3 Xrotation Yrotation Zrotation
										JOINT RightHandIndex3
										{
											OFFSET -2.894196 0.000000 0.000000
											CHANNELS 3 Xrotation Yrotation Zrotation
											End Site
											{
												OFFSET 1.000603 2.690872 0.366626
											}
										}
									}
								}
								JOINT RightHandMiddle1
								{
									OFFSET -13.776489 0.000000 0.000000
									CHANNELS 3 Xrotation Yrotation Zrotation
									JOINT RightHandMiddle2
									{
										OFFSET -3.438232 0.000000 0.000000
										CHANNELS 3 Xrotation Yrotation Zrotation
										JOINT RightHandMiddle3
										{
											OFFSET -3.691551 0.000000 0.000000
											CHANNELS 3 Xrotation Yrotation Zrotation
											End Site
											{
												OFFSET 1.082298 3.499527 0.457670
											}
										}
									}
								}
								JOINT RightHandRing1
								{
									OFFSET -13.966164 -0.268127 -3.067488
									CHANNELS 3 Xrotation Yrotation Zrotation
									JOINT RightHandRing2
									{
										OFFSET -3.162567 0.000000 0.000000
										CHANNELS 3 Xrotation Yrotation Zrotation
										JOINT RightHandRing3
										{
											OFFSET -3.324348 0.000000 0.000000
											CHANNELS 3 Xrotation Yrotation Zrotation
											End Site
											{
												OFFSET 0.861900 3.184998 0.405154
											}
										}
									}
								}
								JOINT RightHandPinky1
								{
									OFFSET -13.131393 -0.168503 -5.746925
									CHANNELS 3 Xrotation Yrotation Zrotation
									JOINT RightHandPinky2
									{
										OFFSET -2.849182 0.000000 0.000000
										CHANNELS 3 Xrotation Yrotation Zrotation
										JOINT RightHandPinky3
										{
											OFFSET -2.805038 0.000000 0.000000
											CHANNELS 3 Xrotation Yrotation Zrotation
											End Site
											{
												OFFSET 0.882500 2.642609 0.325652
											}
										}
									}
								}
							}
							JOINT Right_Sleeve
							{
								OFFSET -6.592125 -0.646545 0.805568
								CHANNELS 3 Xrotation Yrotation Zrotation
								End Site
								{
									OFFSET 0.000179 20.275787 -0.000000
								}
							}
						}
					}
				}
				JOINT Bind_Right_JacketString
				{
					OFFSET -3.534800 11.969597 7.200700
					CHANNELS 3 Xrotation Yrotation Zrotation
					JOINT Bind_Right_JacketString1
					{
						OFFSET -0.319900 -6.102600 2.794100
						CHANNELS 3 Xrotation Yrotation Zrotation
						End Site
						{
							OFFSET 0.000000 6.719452 0.000000
						}
					}
				}
				JOINT Bind_Left_JacketString
				{
					OFFSET 2.904800 11.969597 7.200700
					CHANNELS 3 Xrotation Yrotation Zrotation
					JOINT Bind_Left_JacketString1
					{
						OFFSET 0.364800 -5.904503 3.186800
						CHANNELS 3 Xrotation Yrotation Zrotation
						End Site
						{
							OFFSET 0.000000 6.719513 0.000000
						}
					}
				}
				JOINT HairE
				{
					OFFSET 5.915200 17.612701 -11.592200
					CHANNELS 3 Xrotation Yrotation Zrotation
					JOINT HairE1
					{
						OFFSET 0.289200 -7.171898 -1.284500
						CHANNELS 3 Xrotation Yrotation Zrotation
						End Site
						{
							OFFSET 0.000000 7.291756 0.000000
						}
					}
				}
				JOINT HairF
				{
					OFFSET -0.864800 17.612701 -11.592200
					CHANNELS 3 Xrotation Yrotation Zrotation
					JOINT HairF1
					{
						OFFSET 0.000000 -14.087097 -2.127501
						CHANNELS 3 Xrotation Yrotation Zrotation
						End Site
						{
							OFFSET 0.000000 14.246841 0.000000
						}
					}
				}
				JOINT HairG
				{
					OFFSET -8.087700 17.612701 -11.592200
					CHANNELS 3 Xrotation Yrotation Zrotation
					JOINT HairG1
					{
						OFFSET -0.293600 -6.081398 -0.910100
						CHANNELS 3 Xrotation Yrotation Zrotation
						End Site
						{
							OFFSET 0.000000 6.156120 0.000000
						}
					}
				}
			}
		}
	}
	JOINT Pouch
	{
		OFFSET 0.000000 4.394501 10.847300
		CHANNELS 3 Xrotation Yrotation Zrotation
		End Site
		{
			OFFSET 0.000000 21.880577 0.000000
		}
	}
	JOINT Bag
	{
		OFFSET -13.229000 4.813004 -0.593300
		CHANNELS 3 Xrotation Yrotation Zrotation
		End Site
		{
			OFFSET 0.000000 21.880577 0.000000
		}
	}
	JOINT OccupyGuyFacialAnim_Joint
	{
		OFFSET 1.000000 -70.206398 -1.655000
		CHANNELS 3 Xrotation Yrotation Zrotation
		End Site
		{
			OFFSET 0.000000 21.880577 0.000000
		}
	}
}
MOTION
Frames: 4
Frame Time: 0.033333
-1.223804 64.348228 -0.170721 -72.687228 -98.387728 -75.006173 0.000000 -0.000000 0.000000 -39.114359 8.723525 27.430682 41.083615 -8.601194 1.370479 -10.420353 1.814568 -14.871344 0.000000 -0.000001 0.000000 0.000000 0.000000 -0.000000 -40.673981 -5.176295 -10.352008 50.584255 -6.510132 0.024793 -15.543368 -1.834673 9.841698 0.000000 -0.000000 -0.000000 -0.000000 0.000000 0.000000 5.096463 -2.931033 -0.952288 4.847008 -2.724697 -1.011898 4.872823 -2.670296 -1.025823 -6.470354 11.543117 1.332231 1.868939 69.226460 6.189722 0.000001 -0.000000 0.000000 0.000001 -0.000000 0.000000 0.000001 -0.000000 -0.000001 0.000001 -0.000000 0.000000 0.000001 -0.000001 0.000000 0.000001 -0.000000 0.000000 0.000001 -0.000001 0.000000 0.000001 -0.000000 0.000000 0.000001 -0.000000 0.000000 2.334454 -16.473646 5.405043 -58.657617 -59.148332 -60.619022 0.051553 -91.815801 0.051492 -1.362817 2.416376 38.308390 2.333974 -4.852052 -3.963490 13.533782 36.265904 -6.789669 0.000002 0.000004 -0.000003 2.878041 7.353400 -58.659673 6.385679 5.826640 -95.251858 -0.000000 0.000001 -0.000000 2.878047 7.353394 -58.659673 6.420577 5.823377 -95.595273 0.000002 0.000000 -0.000001 3.051688 7.454223 -60.629704 5.249926 5.820219 -84.092831 0.000001 0.000000 0.000000 2.878040 7.353401 -58.659679 3.100882 5.166437 -61.922242 0.000001 -0.000000 -0.000001 0.000002 0.000001 -0.000004 2.128878 10.933922 -13.435710 -29.167797 -8.101127 18.902841 0.000004 129.787733 -0.000007 -48.886652 35.994342 -4.322224 2.454508 6.926604 5.617165 7.810723 -26.809479 -3.040602 -0.000002 -0.000001 -0.000000 2.770853 -6.512122 65.405379 4.589329 -4.656651 89.164711 0.000001 -0.000003 0.000001 2.634500 -6.539978 74.809225 5.688687 -4.541744 102.810261 0.000000 0.000001 -0.000001 3.122522 -6.655030 70.080910 5.298697 -4.612894 97.926300 -0.000001 -0.000001 0.000002 4.911939 -9.704406 53.806205 4.184468 -4.633158 84.168018 -0.000001 -0.000000 0.000000 0.000000 0.000002 -0.000000 0.000000 0.000000 0.000001 0.000000 0.000001 -0.000000 0.000000 0.000000 0.000000 0.000000 0.000000 0.000000 0.000000 0.000000 0.000001 0.000000 0.000001 -0.000000 0.000000 0.000000 0.000000 0.000000 0.000000 0.000000 0.000000 0.000000 0.000001 0.000000 0.000001 -0.000000 0.000000 -0.000000 0.000000 0.000000 -0.000000 0.000000 0.000000 -0.000000 0.000000 
-1.193151 64.319839 -0.861885 -73.897859 -98.364157 -76.316729 0.000000 0.000000 -0.000000 -38.720773 8.187025 27.661969 40.277578 -8.275490 1.653471 -10.073249 1.831661 -15.520241 0.000000 -0.000000 -0.000000 -0.000002 -0.000001 -0.000002 -40.522081 -5.675388 -9.786365 50.669113 -6.772033 0.378401 -16.586363 -1.680512 8.419908 0.000000 0.000002 -0.000000 0.000000 -0.000000 -0.000000 5.148624 -2.816433 -0.620998 4.959732 -2.803256 -1.040997 4.988240 -2.736068 -1.062139 -5.920205 11.539955 1.097712 1.598835 68.602714 5.928109 -0.000001 0.000000 -0.000001 -0.000001 0.000000 -0.000001 -0.000001 0.000000 -0.000002 -0.000001 0.000000 -0.000001 0.000000 0.000002 -0.000001 -0.000001 0.000000 -0.000001 0.000000 0.000002 -0.000001 -0.000001 0.000000 -0.000001 -0.000001 0.000000 -0.000001 2.307949 -16.599882 4.951018 -58.977782 -58.967093 -61.129742 0.010047 -91.117763 0.010363 -2.287663 2.000003 38.095506 2.333996 -4.852025 -3.963494 13.533773 36.265907 -6.789657 -0.000001 0.000002 0.000001 2.878030 7.353410 -58.659652 6.385686 5.826660 -95.251865 0.000000 -0.000001 -0.000002 2.878037 7.353404 -58.659645 6.420541 5.823359 -95.595232 0.000001 -0.000001 0.000001 3.051708 7.454238 -60.629711 5.249915 5.820211 -84.092818 0.000002 0.000002 -0.000001 2.878031 7.353408 -58.659645 3.100874 5.166417 -61.922235 -0.000003 0.000001 0.000003 0.000000 0.000000 -0.000000 2.178514 11.112535 -13.717416 -29.488546 -7.757020 18.497098 -0.000010 129.069497 0.000012 -50.155435 35.018475 -3.864728 2.454516 6.926614 5.617171 7.810717 -26.809483 -3.040608 -0.000004 -0.000004 -0.000001 2.770847 -6.512102 65.405379 4.589350 -4.656668 89.164739 -0.000002 -0.000001 0.000000 2.634495 -6.539963 74.809231 5.688688 -4.541734 102.810268 0.000001 0.000004 0.000002 3.122516 -6.655032 70.080924 5.298709 -4.612912 97.926328 -0.000001 0.000001 0.000000 4.911941 -9.704410 53.806205 4.184472 -4.633167 84.168025 -0.000000 0.000003 -0.000001 -0.000000 0.000001 -0.000000 0.000001 -0.000001 -0.000000 -0.000001 0.000000 -0.000000 0.000001 -0.000001 -0.000000 0.000001 -0.000001 -0.000000 0.000001 -0.000001 -0.000000 -0.000001 0.000000 -0.000000 0.000001 -0.000001 -0.000000 0.000001 -0.000001 -0.000000 0.000001 -0.000001 -0.000000 -0.000001 0.000000 -0.000000 0.000000 0.000000 -0.000000 0.000000 0.000000 -0.000000 0.000000 0.000000 -0.000000 
-1.138354 64.360939 -1.389080 -73.675283 -98.493274 -75.933672 -0.000000 -0.000000 0.000000 -38.164201 7.868750 27.530348 39.339888 -7.760915 1.886509 -9.859052 1.856284 -16.088683 0.000000 0.000001 -0.000000 -0.000001 0.000000 -0.000001 -40.588519 -5.914139 -9.522604 50.644907 -6.756674 0.595067 -17.105210 -1.572902 7.568316 0.000000 0.000001 0.000000 -0.000003 -0.000000 0.000000 5.206015 -2.802604 -0.541879 5.098483 -2.865693 -1.062663 5.127700 -2.792247 -1.089954 -5.363033 11.548337 0.861881 1.306387 68.077821 5.449903 0.000000 -0.000003 -0.000001 0.000000 -0.000003 -0.000001 0.000000 -0.000003 -0.000001 0.000000 -0.000003 -0.000001 0.000000 0.000001 0.000001 0.000000 -0.000003 -0.000001 0.000000 0.000001 0.000001 0.000000 -0.000003 -0.000001 0.000000 -0.000003 -0.000001 2.269470 -16.727890 4.389549 -58.854859 -59.113942 -61.130862 0.001259 -90.375089 0.002280 -3.592618 1.701183 37.649809 2.333991 -4.852042 -3.963494 13.533767 36.265914 -6.789652 -0.000000 0.000001 -0.000003 2.878044 7.353403 -58.659666 6.385680 5.826649 -95.251858 0.000000 -0.000000 0.000001 2.878044 7.353404 -58.659659 6.420558 5.823373 -95.595232 0.000001 -0.000000 0.000001 3.051701 7.454225 -60.629718 5.249925 5.820216 -84.092804 0.000001 0.000000 0.000003 2.878040 7.353403 -58.659666 3.100869 5.166414 -61.922235 -0.000000 -0.000005 -0.000003 -0.000001 -0.000000 0.000001 2.225002 11.300662 -13.901687 -29.306641 -7.505447 18.298905 -0.000005 128.402557 0.000007 -51.263835 34.287727 -3.780420 2.454529 6.926601 5.617175 7.810705 -26.809456 -3.040621 -0.000001 -0.000002 0.000003 2.770861 -6.512104 65.405393 4.589348 -4.656636 89.164698 0.000001 0.000004 0.000003 2.634507 -6.539968 74.809238 5.688700 -4.541743 102.810289 0.000002 0.000002 0.000001 3.122522 -6.655017 70.080924 5.298705 -4.612875 97.926300 -0.000001 -0.000002 -0.000006 4.911945 -9.704417 53.806229 4.184496 -4.633179 84.168025 -0.000001 0.000004 -0.000001 -0.000000 0.000001 0.000001 -0.000000 -0.000000 0.000000 -0.000002 -0.000001 0.000000 -0.000000 -0.000000 0.000000 -0.000000 -0.000000 0.000000 -0.000000 -0.000000 0.000000 -0.000002 -0.000001 0.000000 -0.000000 -0.000000 0.000000 -0.000000 -0.000000 0.000000 -0.000000 -0.000000 0.000000 -0.000002 -0.000001 0.000000 -0.000000 -0.000000 0.000000 -0.000000 -0.000000 0.000000 -0.000000 -0.000000 0.000000 
-1.075370 64.453156 -1.713633 -72.606967 -98.789097 -74.568481 -0.000000 -0.000000 0.000000 -37.596909 7.703829 27.150818 38.390987 -7.058451 2.032437 -9.794221 1.882292 -16.464501 -0.000000 0.000000 0.000000 -0.000000 -0.000000 -0.000001 -40.802918 -6.040069 -9.553182 50.424838 -6.341539 0.713576 -17.261210 -1.508243 7.109019 0.000000 -0.000000 0.000000 -0.000002 0.000000 -0.000001 5.253127 -2.847499 -0.566517 5.234096 -2.948435 -1.057159 5.262561 -2.874870 -1.089999 -4.760438 11.571456 0.639640 0.882500 67.678842 4.982938 0.000001 -0.000002 0.000001 0.000001 -0.000002 0.000001 0.000001 -0.000002 -0.000000 0.000001 -0.000002 0.000001 0.000000 -0.000000 -0.000001 0.000001 -0.000002 0.000001 0.000000 -0.000000 -0.000001 0.000001 -0.000002 0.000001 0.000001 -0.000002 0.000001 2.242064 -16.881646 3.932087 -58.375667 -59.582889 -60.725532 -0.024759 -89.506480 -0.025027 -5.077273 1.325998 37.114954 2.333982 -4.852054 -3.963507 13.533823 36.265900 -6.789696 0.000001 -0.000004 -0.000006 2.878037 7.353405 -58.659659 6.385689 5.826642 -95.251851 0.000000 -0.000004 -0.000001 2.878034 7.353394 -58.659666 6.420560 5.823377 -95.595246 0.000001 0.000002 0.000001 3.051683 7.454221 -60.629690 5.249934 5.820219 -84.092811 0.000001 -0.000002 -0.000001 2.878037 7.353405 -58.659666 3.100881 5.166417 -61.922249 0.000000 -0.000003 -0.000001 -0.000000 0.000001 -0.000001 2.247436 11.403516 -13.938665 -28.533088 -7.367255 18.321185 -0.000003 127.823179 0.000003 -51.964749 34.019929 -4.098772 2.454507 6.926596 5.617159 7.810719 -26.809476 -3.040612 0.000001 -0.000003 0.000001 2.770852 -6.512094 65.405366 4.589348 -4.656641 89.164718 0.000000 0.000000 -0.000001 2.634494 -6.539979 74.809231 5.688716 -4.541727 102.810296 0.000002 0.000003 0.000001 3.122525 -6.655037 70.080896 5.298695 -4.612870 97.926328 -0.000000 0.000002 -0.000002 4.911948 -9.704428 53.806188 4.184471 -4.633161 84.168018 -0.000000 -0.000002 0.000004 0.000000 -0.000004 -0.000000 -0.000001 -0.000000 0.000001 -0.000003 -0.000001 -0.000000 -0.000001 -0.000000 0.000000 -0.000001 -0.000000 0.000000 -0.000001 -0.000000 0.000001 -0.000003 -0.000001 -0.000000 -0.000001 -0.000000 0.000000 -0.000001 -0.000000 0.000000 -0.000001 -0.000000 0.000001 -0.000003 -0.000001 -0.000000 -0.000000 -0.000000 0.000000 -0.000000 -0.000000 0.000000 -0.000000 -0.000000 0.000000 
